<svg id="_2" data-name="2" xmlns="http://www.w3.org/2000/svg" width="16" height="16" viewBox="0 0 16 16">
  <metadata><?xpacket begin="﻿" id="W5M0MpCehiHzreSzNTczkc9d"?>
<x:xmpmeta xmlns:x="adobe:ns:meta/" x:xmptk="Adobe XMP Core 5.6-c140 79.160451, 2017/05/06-01:08:21        ">
   <rdf:RDF xmlns:rdf="http://www.w3.org/1999/02/22-rdf-syntax-ns#">
      <rdf:Description rdf:about=""/>
   </rdf:RDF>
</x:xmpmeta>
                                                                                                    
                                                                                                    
                                                                                                    
                                                                                                    
                                                                                                    
                                                                                                    
                                                                                                    
                                                                                                    
                                                                                                    
                                                                                                    
                                                                                                    
                                                                                                    
                                                                                                    
                                                                                                    
                                                                                                    
                                                                                                    
                                                                                                    
                                                                                                    
                                                                                                    
                                                                                                    
                           
<?xpacket end="w"?></metadata>
<defs>
    <style>
      .cls-1 {
        fill: #171d26;
        fill-rule: evenodd;
      }
    </style>
  </defs>
  <path id="Фигура_1_копия" data-name="Фигура 1 копия" class="cls-1" d="M10.441,10.819h0A2.439,2.439,0,0,1,5.966,9.282h0L5.061,9.2h0A3.347,3.347,0,0,0,11.2,11.313Zm-6.28-1.7A4.246,4.246,0,0,1,6.739,5.586H6.733L6.378,4.751a5.149,5.149,0,0,0,1.568,9.874h0l0.079-.906h0A4.25,4.25,0,0,1,4.161,9.122Zm3.828-.158h0A2.432,2.432,0,0,0,8.4,4.26h0L8.7,3.4h0A3.337,3.337,0,0,1,8.13,9.858Zm1-6.415A4.262,4.262,0,0,0,4.7,3.461l0,0L4.084,2.792a5.161,5.161,0,0,1,8.4,5.445h0l-0.862-.3h0A4.245,4.245,0,0,0,8.988,2.549Z"/>
</svg>
